<?xml version="1.0" standalone="no"?>
<!DOCTYPE svg PUBLIC "-//W3C//DTD SVG 20010904//EN"
 "http://www.w3.org/TR/2001/REC-SVG-20010904/DTD/svg10.dtd">
<svg version="1.0" xmlns="http://www.w3.org/2000/svg"
 width="422.000000pt" height="422.000000pt" viewBox="0 0 422.000000 422.000000"
 preserveAspectRatio="xMidYMid meet">
<metadata>
Created by potrace 1.14, written by Peter Selinger 2001-2017
</metadata>
<g transform="translate(0.000000,422.000000) scale(0.100000,-0.100000)"
fill="#000000" stroke="none">
<path d="M2082 3899 c-35 -13 -86 -21 -157 -24 -97 -4 -138 -24 -164 -78 -12
-24 -21 -57 -21 -73 0 -50 -37 -75 -122 -84 -82 -9 -91 -11 -166 -48 -48 -23
-142 -105 -142 -123 0 -4 -6 -14 -13 -21 -6 -7 -23 -37 -36 -65 -14 -29 -29
-53 -34 -53 -6 0 -7 -3 -3 -7 3 -4 -6 -20 -22 -37 -46 -50 -113 -163 -127
-216 -1 -3 -5 -12 -8 -20 -17 -39 -25 -112 -24 -201 1 -61 -2 -99 -8 -99 -6 0
-6 -3 1 -8 6 -4 10 -54 9 -132 0 -69 3 -147 7 -175 5 -27 10 -76 13 -108 3
-32 7 -70 9 -85 2 -15 7 -47 11 -72 4 -25 13 -67 21 -95 8 -27 14 -51 14 -53
-2 -12 37 -124 57 -161 42 -82 33 -196 -22 -275 -40 -58 -48 -85 -31 -101 27
-26 76 -55 93 -55 10 0 24 -5 31 -12 7 -7 12 -9 12 -5 0 4 21 -7 47 -23 26
-17 53 -30 60 -30 13 0 63 -46 63 -58 0 -4 8 -12 18 -18 9 -6 23 -29 31 -50
13 -38 42 -106 64 -152 16 -33 58 -74 72 -68 12 4 48 -36 51 -59 1 -8 11 -24
23 -36 12 -13 21 -28 21 -33 0 -6 10 -24 23 -40 21 -26 24 -27 39 -12 12 12
18 13 21 3 4 -9 6 -8 6 2 1 15 51 -53 51 -69 0 -6 5 -10 10 -10 6 0 10 -4 10
-10 0 -15 42 -60 51 -54 5 3 16 20 25 39 19 40 34 44 52 14 11 -17 11 -20 0
-14 -7 5 -3 -2 10 -14 12 -12 22 -26 22 -32 0 -6 6 -16 13 -23 6 -7 22 -26 35
-43 18 -24 28 -29 50 -25 25 5 112 87 112 105 0 5 5 5 12 1 6 -4 8 -3 4 4 -3
6 1 18 10 26 17 17 39 22 29 7 -3 -5 -1 -12 5 -16 5 -3 10 -14 10 -25 0 -28
28 -33 51 -7 11 12 39 42 61 67 22 25 37 39 33 31 -17 -30 50 1 80 36 17 20
41 48 56 63 14 15 23 32 21 39 -2 7 5 15 17 18 11 3 19 9 16 13 -2 4 7 6 21 4
36 -4 60 20 97 96 18 36 35 67 40 68 4 2 7 12 7 21 0 10 20 38 45 63 25 25 45
51 45 57 0 6 5 11 12 11 6 0 8 3 5 6 -3 4 3 18 13 32 11 13 20 31 20 40 0 8
12 34 27 58 30 47 22 45 139 29 39 -6 59 -3 90 11 35 17 40 23 38 51 -1 24
-13 43 -49 76 -53 48 -64 90 -31 122 29 29 126 238 126 272 0 7 5 13 11 13 5
0 8 4 5 9 -3 4 3 25 14 46 23 45 45 107 42 118 -1 4 3 7 9 7 5 0 8 4 5 8 -3 5
-1 25 5 46 6 20 12 53 14 74 9 80 18 118 35 147 15 26 17 54 15 220 -1 105 -5
201 -8 215 -4 14 -12 50 -18 80 -6 30 -15 64 -19 75 -4 11 -20 52 -35 90 -37
98 -54 132 -97 197 -21 31 -38 60 -38 63 0 3 -8 14 -18 25 -9 10 -30 44 -46
75 -28 56 -68 105 -86 105 -6 0 -10 3 -10 8 0 8 -90 69 -103 70 -4 0 -19 8
-33 16 -13 9 -24 13 -24 9 0 -5 -4 -3 -8 3 -21 30 -246 112 -332 120 -14 1
-25 3 -25 4 0 1 -20 4 -43 6 -24 2 -63 13 -85 23 -78 35 -131 46 -274 54 -23
2 -50 0 -61 -4z"/>
</g>
</svg>
